<svg width="52" height="52" viewBox="0 0 52 52" fill="none" xmlns="http://www.w3.org/2000/svg">
<path d="M24.375 9.75V22.75C24.3751 22.9634 24.3332 23.1748 24.2516 23.372C24.17 23.5692 24.0503 23.7484 23.8993 23.8993C23.7484 24.0503 23.5692 24.17 23.372 24.2516C23.1748 24.3332 22.9634 24.3751 22.75 24.375H9.75C9.53656 24.3751 9.3252 24.3332 9.12798 24.2516C8.93077 24.17 8.75158 24.0503 8.60065 23.8993C8.44973 23.7484 8.33004 23.5692 8.24842 23.372C8.16681 23.1748 8.12487 22.9634 8.125 22.75V9.75C8.12487 9.53656 8.16681 9.3252 8.24842 9.12798C8.33004 8.93077 8.44973 8.75158 8.60065 8.60065C8.75158 8.44973 8.93077 8.33004 9.12798 8.24842C9.3252 8.16681 9.53656 8.12487 9.75 8.125H22.75C22.9634 8.12487 23.1748 8.16681 23.372 8.24842C23.5692 8.33004 23.7484 8.44973 23.8993 8.60065C24.0503 8.75158 24.17 8.93077 24.2516 9.12798C24.3332 9.3252 24.3751 9.53656 24.375 9.75ZM42.25 8.125H29.25C29.0366 8.12487 28.8252 8.16681 28.628 8.24842C28.4308 8.33004 28.2516 8.44973 28.1007 8.60065C27.9497 8.75158 27.83 8.93077 27.7484 9.12798C27.6668 9.3252 27.6249 9.53656 27.625 9.75V22.75C27.6249 22.9634 27.6668 23.1748 27.7484 23.372C27.83 23.5692 27.9497 23.7484 28.1007 23.8993C28.2516 24.0503 28.4308 24.17 28.628 24.2516C28.8252 24.3332 29.0366 24.3751 29.25 24.375H42.25C42.4634 24.3751 42.6748 24.3332 42.872 24.2516C43.0692 24.17 43.2484 24.0503 43.3993 23.8993C43.5503 23.7484 43.67 23.5692 43.7516 23.372C43.8332 23.1748 43.8751 22.9634 43.875 22.75V9.75C43.8751 9.53656 43.8332 9.3252 43.7516 9.12798C43.67 8.93077 43.5503 8.75158 43.3993 8.60065C43.2484 8.44973 43.0692 8.33004 42.872 8.24842C42.6748 8.16681 42.4634 8.12487 42.25 8.125ZM22.75 27.625H9.75C9.53656 27.6249 9.3252 27.6668 9.12798 27.7484C8.93077 27.83 8.75158 27.9497 8.60065 28.1007C8.44973 28.2516 8.33004 28.4308 8.24842 28.628C8.16681 28.8252 8.12487 29.0366 8.125 29.25V42.25C8.12487 42.4634 8.16681 42.6748 8.24842 42.872C8.33004 43.0692 8.44973 43.2484 8.60065 43.3993C8.75158 43.5503 8.93077 43.67 9.12798 43.7516C9.3252 43.8332 9.53656 43.8751 9.75 43.875H22.75C22.9634 43.8751 23.1748 43.8332 23.372 43.7516C23.5692 43.67 23.7484 43.5503 23.8993 43.3993C24.0503 43.2484 24.17 43.0692 24.2516 42.872C24.3332 42.6748 24.3751 42.4634 24.375 42.25V29.25C24.3751 29.0366 24.3332 28.8252 24.2516 28.628C24.17 28.4308 24.0503 28.2516 23.8993 28.1007C23.7484 27.9497 23.5692 27.83 23.372 27.7484C23.1748 27.6668 22.9634 27.6249 22.75 27.625ZM42.25 27.625H29.25C29.0366 27.6249 28.8252 27.6668 28.628 27.7484C28.4308 27.83 28.2516 27.9497 28.1007 28.1007C27.9497 28.2516 27.83 28.4308 27.7484 28.628C27.6668 28.8252 27.6249 29.0366 27.625 29.25V42.25C27.6249 42.4634 27.6668 42.6748 27.7484 42.872C27.83 43.0692 27.9497 43.2484 28.1007 43.3993C28.2516 43.5503 28.4308 43.67 28.628 43.7516C28.8252 43.8332 29.0366 43.8751 29.25 43.875H42.25C42.4634 43.8751 42.6748 43.8332 42.872 43.7516C43.0692 43.67 43.2484 43.5503 43.3993 43.3993C43.5503 43.2484 43.67 43.0692 43.7516 42.872C43.8332 42.6748 43.8751 42.4634 43.875 42.25V29.25C43.8751 29.0366 43.8332 28.8252 43.7516 28.628C43.67 28.4308 43.5503 28.2516 43.3993 28.1007C43.2484 27.9497 43.0692 27.83 42.872 27.7484C42.6748 27.6668 42.4634 27.6249 42.25 27.625Z" fill="#5DA9B9"/>
</svg>
