<svg width="46" height="45" viewBox="0 0 46 45" fill="none" xmlns="http://www.w3.org/2000/svg">
<path d="M42.5188 22.1924L24.0155 4.10449C23.8823 3.9739 23.7241 3.8703 23.5498 3.79961C23.3756 3.72892 23.1889 3.69254 23.0003 3.69254C22.8117 3.69254 22.6249 3.72892 22.4507 3.79961C22.2765 3.8703 22.1183 3.9739 21.9851 4.10449L3.48174 22.1924C2.94268 22.7197 2.63721 23.436 2.63721 24.1831C2.63721 25.7344 3.92646 26.9956 5.51221 26.9956H7.46182V39.9023C7.46182 40.6802 8.1042 41.3086 8.89932 41.3086H20.1253V31.4648H25.1565V41.3086H37.1013C37.8964 41.3086 38.5388 40.6802 38.5388 39.9023V26.9956H40.4884C41.252 26.9956 41.9843 26.7012 42.5233 26.1694C43.6419 25.0708 43.6419 23.291 42.5188 22.1924V22.1924Z" fill="#5DA9B9"/>
</svg>
