<svg width="22" height="22" viewBox="0 0 22 22" fill="none" xmlns="http://www.w3.org/2000/svg">
<path d="M7.15967 2.03125H6.94092C7.06123 2.03125 7.15967 1.93281 7.15967 1.8125V2.03125H15.4722V1.8125C15.4722 1.93281 15.5706 2.03125 15.6909 2.03125H15.4722V4H17.4409V1.8125C17.4409 0.847266 16.6562 0.0625 15.6909 0.0625H6.94092C5.97568 0.0625 5.19092 0.847266 5.19092 1.8125V4H7.15967V2.03125ZM20.9409 4H1.69092C1.20693 4 0.815918 4.39102 0.815918 4.875V5.75C0.815918 5.87031 0.914355 5.96875 1.03467 5.96875H2.68623L3.36162 20.2695C3.40537 21.202 4.17646 21.9375 5.10889 21.9375H17.5229C18.4581 21.9375 19.2265 21.2047 19.2702 20.2695L19.9456 5.96875H21.5972C21.7175 5.96875 21.8159 5.87031 21.8159 5.75V4.875C21.8159 4.39102 21.4249 4 20.9409 4ZM17.3124 19.9688H5.31943L4.65771 5.96875H17.9741L17.3124 19.9688Z" fill="black"/>
</svg>
