<svg width="24" height="24" viewBox="0 0 24 24" fill="none" xmlns="http://www.w3.org/2000/svg">
<path d="M7.3225 17.1987L9.377 16.606L21.7472 4.08765C21.8447 3.98766 21.8991 3.85331 21.8984 3.7136C21.8978 3.57389 21.8422 3.44005 21.7437 3.34098L21.0028 2.59198C20.955 2.54279 20.8978 2.50363 20.8346 2.47678C20.7714 2.44994 20.7035 2.43594 20.6349 2.43562C20.5663 2.43529 20.4982 2.44864 20.4348 2.47489C20.3714 2.50113 20.3138 2.53975 20.2655 2.58848L7.928 15.0742L7.32134 17.1975L7.3225 17.1987ZM22.4693 1.10798L23.2102 1.85815C24.2322 2.89298 24.2415 4.56248 23.2288 5.58682L10.4818 18.4878L6.0905 19.7525C5.8224 19.8275 5.53547 19.7931 5.29269 19.6569C5.04991 19.5206 4.8711 19.2936 4.7955 19.0257C4.73925 18.833 4.73844 18.6284 4.79317 18.4353L6.07067 13.9553L18.7838 1.08815C19.0256 0.844734 19.3134 0.651889 19.6304 0.520861C19.9475 0.389834 20.2874 0.323247 20.6305 0.324984C20.9736 0.326722 21.3128 0.396749 21.6285 0.530982C21.9443 0.665214 22.2301 0.860965 22.4693 1.10682V1.10798ZM9.0305 2.45315C9.60917 2.45315 10.0782 2.92798 10.0782 3.51365C10.0791 3.6521 10.0527 3.78937 10.0005 3.91761C9.94838 4.04586 9.87145 4.16256 9.77415 4.26105C9.67685 4.35955 9.56109 4.4379 9.43349 4.49162C9.30589 4.54534 9.16895 4.57339 9.0305 4.57415H4.83984C3.6825 4.57415 2.7445 5.52382 2.7445 6.69398V19.4177C2.7445 20.589 3.6825 21.5387 4.83984 21.5387H17.4118C18.5692 21.5387 19.5083 20.589 19.5083 19.4177V15.1768C19.5083 14.5912 19.9773 14.1163 20.556 14.1163C21.1347 14.1163 21.6037 14.5912 21.6037 15.178V19.4177C21.6037 21.7603 19.7265 23.6597 17.4118 23.6597H4.83984C2.52517 23.6597 0.64917 21.7603 0.64917 19.4177V6.69398C0.64917 4.35248 2.52517 2.45315 4.83984 2.45315H9.0305Z" fill="black"/>
</svg>
