<svg width="28" height="24" viewBox="0 0 28 24" fill="none" xmlns="http://www.w3.org/2000/svg">
<path fill-rule="evenodd" clip-rule="evenodd" d="M0.753418 3.5625C0.753418 2.66739 1.109 1.80895 1.74193 1.17601C2.37487 0.543079 3.23331 0.1875 4.12842 0.1875H24.3784C25.2735 0.1875 26.132 0.543079 26.7649 1.17601C27.3978 1.80895 27.7534 2.66739 27.7534 3.5625V20.4375C27.7534 21.3326 27.3978 22.191 26.7649 22.824C26.132 23.4569 25.2735 23.8125 24.3784 23.8125H4.12842C3.23331 23.8125 2.37487 23.4569 1.74193 22.824C1.109 22.191 0.753418 21.3326 0.753418 20.4375V3.5625ZM2.44092 18.75L6.90604 14.7776C7.04397 14.6402 7.22517 14.5547 7.41894 14.5356C7.6127 14.5166 7.8071 14.5651 7.96917 14.673L12.4579 17.6649L18.7185 11.4043C18.8437 11.2791 19.005 11.1963 19.1798 11.1679C19.3545 11.1394 19.5338 11.1666 19.6922 11.2457L26.0659 14.5312V20.4375C26.0659 20.8851 25.8881 21.3143 25.5717 21.6307C25.2552 21.9472 24.826 22.125 24.3784 22.125H4.12842C3.68087 22.125 3.25164 21.9472 2.93518 21.6307C2.61871 21.3143 2.44092 20.8851 2.44092 20.4375V18.75ZM10.8784 7.78125C10.8784 8.45258 10.6117 9.09641 10.137 9.57111C9.66233 10.0458 9.0185 10.3125 8.34717 10.3125C7.67584 10.3125 7.032 10.0458 6.5573 9.57111C6.0826 9.09641 5.81592 8.45258 5.81592 7.78125C5.81592 7.10992 6.0826 6.46609 6.5573 5.99139C7.032 5.51668 7.67584 5.25 8.34717 5.25C9.0185 5.25 9.66233 5.51668 10.137 5.99139C10.6117 6.46609 10.8784 7.10992 10.8784 7.78125Z" fill="#828287"/>
</svg>
