<svg width="48" height="48" viewBox="0 0 48 48" fill="none" xmlns="http://www.w3.org/2000/svg">
<path d="M11.9878 8.5C11.9878 9.16304 11.7244 9.79893 11.2556 10.2678C10.7867 10.7366 10.1508 11 9.48779 11C8.82475 11 8.18887 10.7366 7.72003 10.2678C7.25119 9.79893 6.98779 9.16304 6.98779 8.5C6.98779 7.83696 7.25119 7.20107 7.72003 6.73223C8.18887 6.26339 8.82475 6 9.48779 6C10.1508 6 10.7867 6.26339 11.2556 6.73223C11.7244 7.20107 11.9878 7.83696 11.9878 8.5V8.5Z" fill="#5DA9B9"/>
<path d="M13.9878 8.5C13.9893 9.47219 13.6744 10.4185 13.0908 11.196C15.7218 12.048 18.3608 13.108 20.1008 14.998C20.1243 15.0238 20.1528 15.0447 20.1845 15.0593C20.2162 15.0738 20.2506 15.0819 20.2855 15.0829C20.3204 15.0839 20.3551 15.0779 20.3877 15.0652C20.4202 15.0525 20.4498 15.0334 20.4748 15.009C21.3 14.1991 22.2219 13.4941 23.2198 12.91C23.2516 12.8918 23.2789 12.8667 23.2999 12.8367C23.3209 12.8067 23.335 12.7724 23.3412 12.7363C23.3474 12.7002 23.3456 12.6632 23.3358 12.6278C23.3261 12.5925 23.3087 12.5598 23.2848 12.532C20.9348 9.86 17.5148 8.712 13.9438 7.867C13.9728 8.074 13.9878 8.285 13.9878 8.5V8.5Z" fill="#5DA9B9"/>
<path d="M10.7199 12.83C10.3279 12.94 9.91495 13 9.48795 13C8.59395 13 7.76095 12.74 7.06095 12.29L6.08495 23.452L6.00295 25.792C5.96781 26.7944 6.31055 27.7734 6.96326 28.535C7.61596 29.2967 8.53097 29.7852 9.52695 29.904L9.70795 29.926C10.4852 30.0184 11.2726 29.8808 11.9724 29.5301C12.6722 29.1793 13.2538 28.631 13.6449 27.953L15.8409 24.147C15.8654 24.1046 15.8769 24.0561 15.874 24.0073C15.8711 23.9585 15.8539 23.9116 15.8247 23.8724C15.7954 23.8333 15.7553 23.8035 15.7093 23.7869C15.6633 23.7703 15.6135 23.7676 15.5659 23.779L13.7919 24.209C13.7672 24.2155 13.7415 24.2182 13.7159 24.217L11.0499 24.043L9.31995 23.837C9.28671 23.8331 9.25461 23.8225 9.22553 23.806C9.19645 23.7894 9.17099 23.7672 9.15066 23.7406C9.13033 23.714 9.11555 23.6836 9.10718 23.6512C9.09881 23.6188 9.09703 23.5851 9.10195 23.552L10.7189 12.829L10.7199 12.83Z" fill="#5DA9B9"/>
<path fill-rule="evenodd" clip-rule="evenodd" d="M31.1022 13C24.7332 13 19.4742 17.975 19.1202 24.334L18.8092 29.944C18.8016 30.0798 18.8217 30.2157 18.8684 30.3434C18.9151 30.4712 18.9874 30.588 19.0808 30.6869C19.1742 30.7857 19.2868 30.8645 19.4117 30.9183C19.5366 30.9721 19.6712 30.9999 19.8072 31H41.4572C41.5263 31 41.5946 30.9856 41.6579 30.9578C41.7211 30.93 41.7779 30.8895 41.8247 30.8386C41.8715 30.7878 41.9073 30.7278 41.9297 30.6625C41.9522 30.5971 41.9609 30.5279 41.9552 30.459L41.3652 23.375C41.3338 23.0001 41.1627 22.6506 40.8858 22.396C40.6089 22.1413 40.2464 21.9999 39.8702 22H36.0442C36.0321 22.0001 36.0203 21.9958 36.0111 21.9879C36.0019 21.98 35.9959 21.969 35.9942 21.957L34.9902 14.725C34.9238 14.2468 34.6867 13.8087 34.3226 13.4917C33.9585 13.1746 33.492 13 33.0092 13H31.1022ZM31.5322 17.215C31.5252 17.0891 31.4689 16.971 31.3756 16.8862C31.2822 16.8014 31.1592 16.7568 31.0332 16.762C26.7672 16.978 23.3392 20.148 23.0762 24.496L23.0412 25.075C23.0365 25.153 23.0502 25.231 23.0811 25.3027C23.112 25.3745 23.1593 25.438 23.2192 25.4881C23.2791 25.5383 23.3499 25.5738 23.426 25.5916C23.502 25.6095 23.5812 25.6093 23.6572 25.591L29.4622 24.189C29.8332 24.064 30.2252 23.999 30.6202 23.999H31.7322C31.7664 23.9991 31.8003 23.9921 31.8317 23.9786C31.8631 23.965 31.8914 23.9452 31.9149 23.9202C31.9383 23.8953 31.9564 23.8658 31.968 23.8336C31.9795 23.8014 31.9844 23.7672 31.9822 23.733L31.5322 17.215V17.215Z" fill="#5DA9B9"/>
<path fill-rule="evenodd" clip-rule="evenodd" d="M17 37.5C17 36.3065 17.4741 35.1619 18.318 34.318C19.1619 33.4741 20.3065 33 21.5 33H37.5C38.0909 33 38.6761 33.1164 39.2221 33.3425C39.768 33.5687 40.2641 33.9002 40.682 34.318C41.0998 34.7359 41.4313 35.232 41.6575 35.7779C41.8836 36.3239 42 36.9091 42 37.5C42 38.0909 41.8836 38.6761 41.6575 39.2221C41.4313 39.768 41.0998 40.2641 40.682 40.682C40.2641 41.0998 39.768 41.4313 39.2221 41.6575C38.6761 41.8836 38.0909 42 37.5 42H21.5C20.3065 42 19.1619 41.5259 18.318 40.682C17.4741 39.8381 17 38.6935 17 37.5V37.5ZM25 37.5C25 37.697 24.9612 37.892 24.8858 38.074C24.8104 38.256 24.6999 38.4214 24.5607 38.5607C24.4214 38.6999 24.256 38.8104 24.074 38.8858C23.892 38.9612 23.697 39 23.5 39C23.303 39 23.108 38.9612 22.926 38.8858C22.744 38.8104 22.5786 38.6999 22.4393 38.5607C22.3001 38.4214 22.1896 38.256 22.1142 38.074C22.0388 37.892 22 37.697 22 37.5C22 37.1022 22.158 36.7206 22.4393 36.4393C22.7206 36.158 23.1022 36 23.5 36C23.8978 36 24.2794 36.158 24.5607 36.4393C24.842 36.7206 25 37.1022 25 37.5V37.5ZM29.5 39C29.8978 39 30.2794 38.842 30.5607 38.5607C30.842 38.2794 31 37.8978 31 37.5C31 37.1022 30.842 36.7206 30.5607 36.4393C30.2794 36.158 29.8978 36 29.5 36C29.1022 36 28.7206 36.158 28.4393 36.4393C28.158 36.7206 28 37.1022 28 37.5C28 37.8978 28.158 38.2794 28.4393 38.5607C28.7206 38.842 29.1022 39 29.5 39V39ZM37 37.5C37 37.8978 36.842 38.2794 36.5607 38.5607C36.2794 38.842 35.8978 39 35.5 39C35.1022 39 34.7206 38.842 34.4393 38.5607C34.158 38.2794 34 37.8978 34 37.5C34 37.1022 34.158 36.7206 34.4393 36.4393C34.7206 36.158 35.1022 36 35.5 36C35.8978 36 36.2794 36.158 36.5607 36.4393C36.842 36.7206 37 37.1022 37 37.5V37.5Z" fill="#5DA9B9"/>
</svg>
