<svg width="48" height="48" viewBox="0 0 48 48" fill="none" xmlns="http://www.w3.org/2000/svg">
<path d="M27.6398 44H20.3598C19.9036 44.0001 19.4612 43.8442 19.1058 43.5583C18.7504 43.2724 18.5034 42.8736 18.4058 42.428L17.5918 38.66C16.5059 38.1842 15.4762 37.5892 14.5218 36.886L10.8478 38.056C10.4129 38.1947 9.94367 38.1804 9.51801 38.0156C9.09235 37.8508 8.73587 37.5454 8.50777 37.15L4.85977 30.848C4.63406 30.4523 4.54933 29.9916 4.61945 29.5415C4.68957 29.0914 4.91039 28.6783 5.24577 28.37L8.09577 25.77C7.96616 24.5922 7.96616 23.4038 8.09577 22.226L5.24577 19.632C4.90991 19.3235 4.6888 18.9101 4.61867 18.4596C4.54854 18.009 4.63355 17.5479 4.85977 17.152L8.49977 10.846C8.72787 10.4506 9.08435 10.1452 9.51001 9.98038C9.93567 9.81557 10.4049 9.80132 10.8398 9.94L14.5138 11.11C15.0018 10.75 15.5098 10.414 16.0338 10.11C16.5398 9.826 17.0598 9.568 17.5918 9.338L18.4078 5.574C18.5049 5.1284 18.7514 4.72938 19.1065 4.4431C19.4615 4.15682 19.9037 4.00048 20.3598 4H27.6398C28.0958 4.00048 28.538 4.15682 28.8931 4.4431C29.2481 4.72938 29.4946 5.1284 29.5918 5.574L30.4158 9.34C30.9758 9.588 31.5238 9.866 32.0538 10.176C32.5478 10.462 33.0258 10.776 33.4858 11.114L37.1618 9.944C37.5964 9.80583 38.0651 9.82034 38.4904 9.98512C38.9156 10.1499 39.2717 10.4551 39.4998 10.85L43.1398 17.156C43.6038 17.97 43.4438 19 42.7538 19.634L39.9038 22.234C40.0334 23.4118 40.0334 24.6002 39.9038 25.778L42.7538 28.378C43.4438 29.014 43.6038 30.042 43.1398 30.856L39.4998 37.162C39.2717 37.5574 38.9152 37.8628 38.4895 38.0276C38.0639 38.1924 37.5946 38.2067 37.1598 38.068L33.4858 36.898C32.532 37.6007 31.503 38.195 30.4178 38.67L29.5918 42.428C29.4942 42.8732 29.2475 43.2718 28.8925 43.5577C28.5376 43.8436 28.0956 43.9996 27.6398 44V44ZM23.9918 16C21.87 16 19.8352 16.8429 18.3349 18.3431C16.8346 19.8434 15.9918 21.8783 15.9918 24C15.9918 26.1217 16.8346 28.1566 18.3349 29.6569C19.8352 31.1571 21.87 32 23.9918 32C26.1135 32 28.1483 31.1571 29.6486 29.6569C31.1489 28.1566 31.9918 26.1217 31.9918 24C31.9918 21.8783 31.1489 19.8434 29.6486 18.3431C28.1483 16.8429 26.1135 16 23.9918 16V16Z" fill="#5DA9B9"/>
</svg>
