<svg width="24" height="18" viewBox="0 0 24 18" fill="none" xmlns="http://www.w3.org/2000/svg">
<path d="M20.3167 1.49197C18.7867 0.801974 17.1467 0.291974 15.4317 0.0019736C15.4165 -0.000958481 15.4007 0.000931061 15.3865 0.00738094C15.3724 0.0138308 15.3606 0.0245219 15.3527 0.0379736C15.1427 0.406974 14.9087 0.887974 14.7447 1.26797C12.9258 0.99621 11.0767 0.99621 9.25775 1.26797C9.07508 0.846834 8.8691 0.436198 8.64075 0.0379736C8.63301 0.0243563 8.6213 0.0134234 8.60718 0.00663373C8.59307 -0.000155898 8.57722 -0.00247938 8.56175 -2.64894e-05C6.84775 0.289973 5.20775 0.799974 3.67675 1.49097C3.66358 1.4965 3.65241 1.50592 3.64475 1.51797C0.532748 6.09297 -0.320252 10.555 0.0987482 14.961C0.0999141 14.9718 0.103264 14.9822 0.108593 14.9917C0.113923 15.0011 0.12112 15.0094 0.129748 15.016C1.94614 16.3384 3.97208 17.3458 6.12275 17.996C6.13774 18.0006 6.15378 18.0006 6.16876 17.9959C6.18375 17.9913 6.19698 17.9823 6.20675 17.97C6.66875 17.35 7.08075 16.695 7.43275 16.007C7.45375 15.967 7.43375 15.919 7.39175 15.903C6.74575 15.6597 6.11983 15.3661 5.51975 15.025C5.50897 15.0188 5.49988 15.0101 5.49331 14.9995C5.48673 14.989 5.48287 14.977 5.48208 14.9646C5.48129 14.9522 5.48358 14.9398 5.48876 14.9286C5.49394 14.9173 5.50184 14.9075 5.51175 14.9C5.63775 14.807 5.76375 14.71 5.88375 14.613C5.89455 14.6043 5.90756 14.5987 5.92133 14.5969C5.9351 14.5952 5.9491 14.5973 5.96175 14.603C9.88875 16.367 14.1417 16.367 18.0227 14.603C18.0354 14.5969 18.0496 14.5946 18.0635 14.5961C18.0775 14.5977 18.0907 14.6032 18.1017 14.612C18.2217 14.71 18.3467 14.807 18.4737 14.9C18.4838 14.9073 18.4918 14.917 18.4971 14.9282C18.5025 14.9394 18.505 14.9517 18.5044 14.9641C18.5038 14.9765 18.5001 14.9885 18.4937 14.9991C18.4873 15.0098 18.4784 15.0186 18.4677 15.025C17.8697 15.369 17.2477 15.66 16.5947 15.902C16.5847 15.9056 16.5756 15.9114 16.5679 15.9188C16.5603 15.9263 16.5544 15.9353 16.5505 15.9452C16.5466 15.9551 16.5449 15.9658 16.5454 15.9764C16.546 15.9871 16.5488 15.9975 16.5537 16.007C16.9137 16.694 17.3257 17.348 17.7787 17.969C17.7882 17.9817 17.8013 17.9912 17.8163 17.9963C17.8314 18.0013 17.8476 18.0015 17.8627 17.997C20.0171 17.3486 22.0464 16.3407 23.8647 15.016C23.8736 15.0098 23.8811 15.0017 23.8866 14.9924C23.8921 14.9831 23.8956 14.9727 23.8967 14.962C24.3967 9.86797 23.0587 5.44197 20.3477 1.51997C20.3411 1.50723 20.3301 1.49729 20.3167 1.49197ZM8.01975 12.278C6.83775 12.278 5.86275 11.209 5.86275 9.89797C5.86275 8.58597 6.81875 7.51797 8.01975 7.51797C9.22975 7.51797 10.1957 8.59497 10.1767 9.89797C10.1767 11.21 9.22075 12.278 8.01975 12.278ZM15.9947 12.278C14.8117 12.278 13.8377 11.209 13.8377 9.89797C13.8377 8.58597 14.7927 7.51797 15.9947 7.51797C17.2047 7.51797 18.1707 8.59497 18.1517 9.89797C18.1517 11.21 17.2057 12.278 15.9947 12.278Z" fill="white"/>
</svg>
