<svg width="24" height="18" viewBox="0 0 24 18" fill="none" xmlns="http://www.w3.org/2000/svg">
<path d="M20.2551 1.76783C18.7888 1.11079 17.2172 0.625148 15.5736 0.349001C15.559 0.346209 15.5439 0.348008 15.5303 0.35415C15.5167 0.360291 15.5054 0.370472 15.4979 0.383281C15.2967 0.734655 15.0724 1.19268 14.9153 1.55453C13.1721 1.29575 11.4 1.29575 9.65689 1.55453C9.48184 1.1535 9.28443 0.762483 9.0656 0.383281C9.05818 0.370314 9.04696 0.359903 9.03343 0.353438C9.01991 0.346973 9.00472 0.34476 8.98989 0.347096C7.34731 0.623244 5.77564 1.10888 4.30843 1.76688C4.29581 1.77214 4.28511 1.78111 4.27777 1.79259C1.29543 6.14905 0.477974 10.3979 0.879515 14.5935C0.880633 14.6037 0.883843 14.6137 0.88895 14.6227C0.894057 14.6317 0.900955 14.6396 0.909224 14.6458C2.64993 15.9051 4.59146 16.8644 6.65252 17.4835C6.66688 17.4879 6.68225 17.4879 6.69661 17.4834C6.71097 17.479 6.72366 17.4704 6.73302 17.4587C7.17577 16.8683 7.5706 16.2446 7.90793 15.5895C7.92806 15.5514 7.90889 15.5057 7.86864 15.4905C7.24956 15.2588 6.64972 14.9793 6.07464 14.6544C6.06431 14.6485 6.0556 14.6402 6.0493 14.6302C6.043 14.6202 6.0393 14.6087 6.03854 14.5969C6.03778 14.5851 6.03998 14.5733 6.04495 14.5626C6.04991 14.5518 6.05748 14.5425 6.06697 14.5354C6.18772 14.4468 6.30847 14.3544 6.42347 14.2621C6.43383 14.2538 6.44629 14.2485 6.45949 14.2468C6.47269 14.2451 6.4861 14.2471 6.49822 14.2526C10.2616 15.9323 14.3374 15.9323 18.0567 14.2526C18.0688 14.2468 18.0824 14.2445 18.0958 14.246C18.1092 14.2476 18.1218 14.2528 18.1324 14.2611C18.2474 14.3544 18.3672 14.4468 18.4889 14.5354C18.4985 14.5423 18.5062 14.5516 18.5113 14.5622C18.5164 14.5729 18.5188 14.5846 18.5182 14.5964C18.5177 14.6082 18.5142 14.6197 18.508 14.6298C18.5019 14.6399 18.4934 14.6484 18.4831 14.6544C17.9101 14.982 17.314 15.2591 16.6882 15.4895C16.6786 15.493 16.6698 15.4984 16.6625 15.5055C16.6552 15.5126 16.6495 15.5212 16.6458 15.5307C16.642 15.5401 16.6404 15.5503 16.6409 15.5604C16.6415 15.5706 16.6442 15.5805 16.6489 15.5895C16.9939 16.2437 17.3887 16.8664 17.8228 17.4578C17.8319 17.4699 17.8444 17.479 17.8589 17.4837C17.8733 17.4885 17.8888 17.4888 17.9034 17.4844C19.9679 16.867 21.9126 15.9073 23.6553 14.6458C23.6638 14.6399 23.6709 14.6323 23.6762 14.6234C23.6815 14.6145 23.6848 14.6047 23.6859 14.5944C24.1651 9.74373 22.8828 5.52915 20.2848 1.79449C20.2784 1.78235 20.2679 1.77289 20.2551 1.76783ZM8.47047 12.0386C7.33772 12.0386 6.40335 11.0207 6.40335 9.7723C6.40335 8.52297 7.31952 7.50598 8.47047 7.50598C9.63006 7.50598 10.5558 8.53154 10.5376 9.7723C10.5376 11.0216 9.62143 12.0386 8.47047 12.0386ZM16.1132 12.0386C14.9795 12.0386 14.0461 11.0207 14.0461 9.7723C14.0461 8.52297 14.9613 7.50598 16.1132 7.50598C17.2728 7.50598 18.1985 8.53154 18.1803 9.7723C18.1803 11.0216 17.2737 12.0386 16.1132 12.0386Z" fill="#376BE9"/>
</svg>
