<svg width="23" height="18" viewBox="0 0 23 18" fill="none" xmlns="http://www.w3.org/2000/svg">
<path d="M22.4425 2.19138C21.6423 2.5437 20.7827 2.78176 19.879 2.88936C20.8114 2.33497 21.5091 1.46241 21.8417 0.434507C20.9656 0.95156 20.0068 1.31551 19.0069 1.51053C18.3345 0.797179 17.4439 0.324359 16.4734 0.165477C15.5028 0.0065944 14.5067 0.17054 13.6395 0.63186C12.7724 1.09318 12.0827 1.82606 11.6777 2.71673C11.2727 3.60739 11.175 4.606 11.3997 5.55752C9.62452 5.46896 7.88797 5.01051 6.30269 4.21192C4.71741 3.41334 3.31884 2.29247 2.19774 0.92205C1.81441 1.57909 1.59399 2.34088 1.59399 3.15218C1.59356 3.88254 1.77457 4.60171 2.12096 5.24588C2.46734 5.89006 2.9684 6.43932 3.57966 6.84494C2.87076 6.82253 2.1775 6.63219 1.55758 6.28979V6.34692C1.5575 7.37128 1.91411 8.36411 2.56688 9.15696C3.21964 9.9498 4.12837 10.4938 5.13887 10.6967C4.48124 10.8736 3.79177 10.8996 3.12253 10.7729C3.40763 11.6543 3.96299 12.425 4.71084 12.9772C5.4587 13.5294 6.36162 13.8355 7.2932 13.8524C5.71179 15.086 3.75876 15.7551 1.74828 15.7521C1.39215 15.7522 1.03632 15.7316 0.682617 15.6902C2.72336 16.994 5.09894 17.6859 7.52512 17.6833C15.738 17.6833 20.2278 10.9243 20.2278 5.06236C20.2278 4.87191 20.223 4.67956 20.2144 4.48911C21.0877 3.86157 21.8416 3.08447 22.4406 2.19423L22.4425 2.19138Z" fill="#376BE9"/>
</svg>
