<svg width="23" height="16" viewBox="0 0 23 16" fill="none" xmlns="http://www.w3.org/2000/svg">
<path d="M0.817383 7.73878C0.817383 7.73878 4.86098 0.275879 11.6003 0.275879C18.3396 0.275879 22.3832 7.73878 22.3832 7.73878C22.3832 7.73878 18.3396 15.2017 11.6003 15.2017C4.86098 15.2017 0.817383 7.73878 0.817383 7.73878ZM11.6003 12.4879C12.8515 12.4879 14.0514 11.9875 14.9361 11.0969C15.8208 10.2063 16.3178 8.99832 16.3178 7.73878C16.3178 6.47923 15.8208 5.27128 14.9361 4.38065C14.0514 3.49001 12.8515 2.98966 11.6003 2.98966C10.3491 2.98966 9.14922 3.49001 8.26451 4.38065C7.3798 5.27128 6.88278 6.47923 6.88278 7.73878C6.88278 8.99832 7.3798 10.2063 8.26451 11.0969C9.14922 11.9875 10.3491 12.4879 11.6003 12.4879V12.4879Z" fill="#F1F1F1"/>
</svg>
